<svg width="32" height="32" viewBox="0 0 32 32" fill="none" xmlns="http://www.w3.org/2000/svg">
<g clip-path="url(#clip0)">
<path d="M22.541 17.6736C18.9328 21.2819 13.0617 21.2819 9.45351 17.6736C5.84526 14.0654 5.84526 8.19431 9.45345 4.58606C13.0616 0.977813 18.9328 0.977812 22.541 4.58612C26.1493 8.19431 26.1493 14.0654 22.541 17.6736Z" fill="#4887CC"/>
<path d="M11.2402 17.6735C5.73587 12.1692 9.11736 2.6699 16.8907 1.92271C14.2328 1.66721 11.4848 2.55496 9.45373 4.58602C5.84549 8.19427 5.84549 14.0653 9.4538 17.6736C11.4849 19.7046 14.2329 20.5923 16.8907 20.3369C14.8269 20.1384 12.8174 19.2507 11.2402 17.6735Z" fill="#2C75B7"/>
<path d="M23.0549 17.8381C24.7828 16.0216 25.7305 13.649 25.7305 11.1293C25.7305 11.1274 25.7302 11.1255 25.7302 11.1237C25.7272 5.76586 21.408 1.41217 16.0253 1.39705C16.0165 1.39698 16.0076 1.39655 15.9988 1.39655C15.9984 1.39655 15.9981 1.39648 15.9977 1.39648C7.35166 1.39648 3.01622 11.9173 9.11247 18.0145C9.11247 18.0145 9.11253 18.0145 9.11253 18.0145C12.9545 21.8579 19.2644 21.8258 23.0549 17.8381ZM9.85803 11.6121C9.90022 13.0062 10.126 14.3464 10.5144 15.5607C10.0469 15.8795 9.60128 16.2436 9.1836 16.653C8.04078 15.2245 7.34791 13.5183 7.24397 11.6121H9.85803ZM22.1627 4.89048C21.8388 5.21048 21.496 5.49998 21.1379 5.75923C20.7376 4.79498 20.1893 3.8493 19.4757 3.07686C20.4462 3.4968 21.3509 4.08805 22.1627 4.89048ZM24.7513 10.6464H22.1373C22.0952 9.25223 21.8694 7.91217 21.4809 6.6978C21.9485 6.37892 22.3941 6.01486 22.8118 5.60548C24.0068 7.07755 24.6532 8.84961 24.7513 10.6464ZM24.7455 11.7105C24.7441 11.7322 24.7428 11.7539 24.7412 11.7755C24.6127 13.5307 23.9637 15.2319 22.8117 16.653C22.394 16.2437 21.9484 15.8795 21.4809 15.5607C21.8694 14.3464 22.0951 13.0062 22.1373 11.6121H24.7513C24.7495 11.6449 24.7477 11.6777 24.7455 11.7105ZM20.3116 6.28867C19.122 6.96005 17.8082 7.33205 16.4805 7.40461V2.40073C18.3206 2.69317 19.6162 4.53798 20.3116 6.28867ZM16.4805 8.37155C17.9148 8.30092 19.3365 7.91498 20.6318 7.21492C20.9561 8.29823 21.1385 9.46673 21.1775 10.6465H16.4805V8.37155H16.4805ZM21.1775 11.6121C21.1387 12.7918 20.9562 13.9603 20.6318 15.0436C19.3365 14.3435 17.915 13.9576 16.4805 13.887V11.6121H21.1775ZM16.4805 19.8579V14.8539C17.8081 14.9265 19.122 15.2985 20.3116 15.9699C19.6172 17.718 18.322 19.5652 16.4805 19.8579ZM15.5148 19.8579C13.6747 19.5654 12.3791 17.7202 11.6838 15.9699C12.8733 15.2985 14.1873 14.9265 15.5148 14.8539V19.8579ZM12.5195 19.1815C11.5497 18.764 10.6364 18.163 9.83272 17.368C10.1565 17.048 10.4993 16.7585 10.8575 16.4993C11.2578 17.4636 11.8058 18.409 12.5195 19.1815ZM19.4755 19.182C20.1898 18.4089 20.7379 17.4627 21.1379 16.4994C21.496 16.7586 21.8388 17.048 22.1627 17.3681C21.3769 18.1444 20.4743 18.752 19.4755 19.182ZM12.5197 3.0768C11.8057 3.84961 11.2576 4.79548 10.8575 5.75923C10.4994 5.49998 10.1565 5.21048 9.83272 4.89048C10.6145 4.1178 11.51 3.51405 12.5197 3.0768ZM15.5148 2.40073V7.40461C14.1873 7.33205 12.8733 6.96005 11.6838 6.28867C12.3782 4.54067 13.6733 2.69336 15.5148 2.40073ZM15.5148 8.37155V10.6464H10.8178C10.8568 9.46673 11.0392 8.2983 11.3635 7.21505C12.6588 7.91517 14.0802 8.30098 15.5148 8.37155ZM15.5148 11.6121V13.887C14.0803 13.9575 12.6588 14.3434 11.3635 15.0435C11.0392 13.9603 10.8568 12.7918 10.8178 11.6121H15.5148ZM9.1836 5.60555C9.60128 6.01492 10.047 6.37905 10.5145 6.69792C10.126 7.91223 9.90028 9.2523 9.8581 10.6464H7.2441C7.34553 8.7883 8.02497 7.03273 9.1836 5.60555Z" fill="#5DA3E2"/>
<path d="M27.39 15.1453C27.2665 15.1453 27.1429 15.0982 27.0486 15.0039L24.8758 12.8311C24.6872 12.6425 24.6872 12.3368 24.8758 12.1482C25.0644 11.9597 25.3701 11.9597 25.5586 12.1482L27.7314 14.321C27.92 14.5097 27.92 14.8153 27.7314 15.0039C27.6372 15.0982 27.5136 15.1453 27.39 15.1453Z" fill="#CBE8EF"/>
<path d="M25.6704 12.9436C23.1425 15.4714 19.0294 15.4714 16.5016 12.9436C13.9737 10.4157 13.9737 6.30266 16.5016 3.77479C19.0295 1.24691 23.1425 1.24698 25.6704 3.77479C28.1982 6.30266 28.1982 10.4158 25.6704 12.9436Z" fill="#E1F3F9"/>
<path d="M17.789 12.9434C13.9361 9.09061 16.2961 2.44823 21.7295 1.91067C19.8619 1.72592 17.9288 2.34705 16.5013 3.77455C13.9735 6.30236 13.9735 10.4155 16.5013 12.9434C17.9288 14.3709 19.8619 14.992 21.7295 14.8072C20.29 14.6649 18.8893 14.0437 17.789 12.9434Z" fill="#CBE8EF"/>
<path d="M27.2602 14.1269L26.8537 14.5334C26.5556 14.8315 26.5556 15.3193 26.8537 15.6173L30.2862 19.0498C30.5842 19.3479 31.0721 19.3479 31.3701 19.0498L31.7766 18.6433C32.0747 18.3453 32.0747 17.8575 31.7766 17.5594L28.3441 14.1269C28.046 13.8288 27.5582 13.8288 27.2602 14.1269Z" fill="#C64757"/>
<path d="M28.1412 15.6173C27.8432 15.3192 27.8432 14.8314 28.1412 14.5334L28.4459 14.2287L28.3441 14.1269C28.046 13.8288 27.5582 13.8288 27.2602 14.1269L26.8537 14.5334C26.5556 14.8314 26.5556 15.3192 26.8537 15.6173L30.2862 19.0498C30.5842 19.3479 31.072 19.3479 31.3701 19.0498L31.4719 18.948L28.1412 15.6173Z" fill="#AF3549"/>
<path d="M28.5696 17.3332L30.2858 19.0495C30.5839 19.3475 31.0717 19.3475 31.3698 19.0495L31.7763 18.643C32.0743 18.3449 32.0743 17.8571 31.7763 17.559L30.06 15.8428L28.5696 17.3332Z" fill="#AF3549"/>
<path d="M31.451 18.9681L31.4714 18.9477L29.2131 16.6895L28.5693 17.3333L30.2856 19.0495C30.5836 19.3476 31.0715 19.3476 31.3695 19.0495L31.451 18.9681Z" fill="#A32F48"/>
<path d="M17.4046 4.67759C15.3749 6.70734 15.3749 10.01 17.4046 12.0398C19.4344 14.0695 22.7371 14.0695 24.7668 12.0398C26.7966 10.01 26.7966 6.70734 24.7668 4.67759C22.7371 2.64784 19.4344 2.64784 17.4046 4.67759Z" fill="#B5E3EA"/>
<path d="M18.6923 12.0404C15.642 8.99019 17.4335 3.72794 21.7295 3.19694C20.1909 3.00675 18.5833 3.49956 17.4046 4.67819C15.3749 6.70794 15.3749 10.0106 17.4046 12.0404C18.5833 13.219 20.191 13.7118 21.7295 13.5216C20.6185 13.3843 19.5434 12.8915 18.6923 12.0404Z" fill="#90D8E0"/>
<path d="M29.2582 25.0671C25.9205 24.9564 25.434 23.6073 22.0327 23.0798C18.4848 22.5297 15.9922 25.0744 15.9922 25.0744L16.0033 26.8854H29.7064V25.5279C29.7064 25.2782 29.5076 25.0754 29.2582 25.0671Z" fill="#EADCD6"/>
<path d="M21.6696 23.0337C18.316 22.7022 15.9922 25.074 15.9922 25.074L16.0033 26.885H17.2909V25.4373C17.2909 25.1953 17.3971 24.9659 17.5819 24.8096C18.18 24.3038 19.6618 23.2315 21.6696 23.0337Z" fill="#DDCDC7"/>
<path d="M10.0267 23.0798C6.63165 23.6064 6.14071 24.9515 2.81946 25.0665C2.55903 25.0755 2.35303 25.2907 2.35303 25.5513V26.8854H16.0561L16.0672 25.0744C16.0673 25.0743 13.5747 22.5297 10.0267 23.0798Z" fill="#EADCD6"/>
<path d="M3.6409 25.4993C3.6409 25.2748 3.76158 25.0772 3.94246 24.9697C3.6049 25.0184 3.23433 25.052 2.81971 25.0664C2.55927 25.0754 2.35327 25.2905 2.35327 25.5512V26.8853H3.6409V25.4993Z" fill="#DDCDC7"/>
<path d="M31.397 26.8213H0.597812C0.267625 26.8213 0 27.0889 0 27.4191V28.5202C0 28.8503 0.267625 29.118 0.597812 29.118H14.1864C14.3584 29.118 14.5021 29.242 14.5358 29.4107C14.6718 30.0908 15.2721 30.6032 15.9923 30.6032C16.7271 30.6032 17.3372 30.0696 17.4564 29.3687C17.4811 29.2235 17.6081 29.118 17.7554 29.118H31.3971C31.7272 29.118 31.9949 28.8504 31.9949 28.5202V27.4191C31.9948 27.0889 31.7272 26.8213 31.397 26.8213Z" fill="#BA7052"/>
<path d="M31.397 27.8307H17.7553C17.608 27.8307 17.4811 27.9362 17.4564 28.0815C17.3372 28.7824 16.7271 29.316 15.9922 29.316C15.2721 29.316 14.6718 28.8035 14.5358 28.1235C14.502 27.9548 14.3584 27.8307 14.1863 27.8307H0.597812C0.2995 27.8307 0.052875 27.6119 0.008 27.3262C0.0031875 27.3567 0 27.3877 0 27.4195V28.5205C0 28.8507 0.267625 29.1184 0.597812 29.1184H14.1864C14.3584 29.1184 14.5021 29.2424 14.5358 29.4111C14.6718 30.0912 15.2721 30.6036 15.9923 30.6036C16.7271 30.6036 17.3372 30.07 17.4564 29.3691C17.4811 29.2239 17.6081 29.1184 17.7554 29.1184H31.3971C31.7272 29.1184 31.9949 28.8507 31.9949 28.5205V27.4195C31.9949 27.3877 31.9917 27.3567 31.9869 27.3262C31.9419 27.6119 31.6954 27.8307 31.397 27.8307Z" fill="#AD644B"/>
</g>
<defs>
<clipPath id="clip0">
<rect width="32" height="32" fill="white"/>
</clipPath>
</defs>
</svg>
