<svg width="32" height="32" viewBox="0 0 32 32" fill="none" xmlns="http://www.w3.org/2000/svg">
<path d="M12.5 3.5H30.5V30.5H12.5V3.5Z" fill="#4887CC"/>
<path d="M28.5 28.5H7.5V1.5H22.5L28.5 8V28.5Z" fill="#4887CC"/>
<path d="M28.5 8H22.5V1.5L28.5 8Z" fill="#2C75B7"/>
<path d="M9.08301 19.4141L11.911 16.5861L22.1625 26.8376C22.5375 27.2126 22.7482 27.7212 22.7482 28.2516C22.7482 28.7819 22.5375 29.2906 22.1625 29.6656C21.7875 30.0406 21.2789 30.2513 20.7485 30.2513C20.2182 30.2513 19.7095 30.0406 19.3345 29.6656L9.08301 19.4141Z" fill="#CC8355"/>
<path d="M9.5 25C13.9183 25 17.5 21.4183 17.5 17C17.5 12.5817 13.9183 9 9.5 9C5.08172 9 1.5 12.5817 1.5 17C1.5 21.4183 5.08172 25 9.5 25Z" fill="#23BE99"/>
<path d="M9.5 23C12.8137 23 15.5 20.3137 15.5 17C15.5 13.6863 12.8137 11 9.5 11C6.18629 11 3.5 13.6863 3.5 17C3.5 20.3137 6.18629 23 9.5 23Z" fill="white"/>
<path d="M30.5007 3H24.5657L22.8657 1.16C22.8193 1.10949 22.7628 1.06919 22.7 1.04164C22.6372 1.0141 22.5693 0.99992 22.5007 1H7.50069C7.36808 1 7.2409 1.05268 7.14713 1.14645C7.05336 1.24022 7.00069 1.36739 7.00069 1.5V8.875C5.26262 9.40912 3.74164 10.4865 2.66113 11.9489C1.58063 13.4114 0.997559 15.1817 0.997559 17C0.997559 18.8183 1.58063 20.5886 2.66113 22.0511C3.74164 23.5135 5.26262 24.5909 7.00069 25.125V28.5C7.00069 28.6326 7.05336 28.7598 7.14713 28.8536C7.2409 28.9473 7.36808 29 7.50069 29H12.0007V30.5C12.0007 30.6326 12.0534 30.7598 12.1471 30.8536C12.2409 30.9473 12.3681 31 12.5007 31H30.5007C30.6333 31 30.7605 30.9473 30.8542 30.8536C30.948 30.7598 31.0007 30.6326 31.0007 30.5V3.5C31.0007 3.36739 30.948 3.24022 30.8542 3.14645C30.7605 3.05268 30.6333 3 30.5007 3ZM23.0007 2.78L27.3607 7.5H23.0007V2.78ZM2.00069 17C2.00069 15.5166 2.44055 14.0666 3.26466 12.8332C4.08877 11.5999 5.26011 10.6386 6.63056 10.0709C8.00101 9.50325 9.50901 9.35472 10.9639 9.64411C12.4187 9.9335 13.7551 10.6478 14.804 11.6967C15.8529 12.7456 16.5672 14.082 16.8566 15.5368C17.146 16.9917 16.9974 18.4997 16.4298 19.8701C15.8621 21.2406 14.9008 22.4119 13.6675 23.236C12.4341 24.0601 10.984 24.5 9.50069 24.5C7.51229 24.4976 5.60602 23.7067 4.20002 22.3007C2.79401 20.8947 2.00307 18.9884 2.00069 17ZM8.00069 28V25.36C8.49571 25.4499 8.99758 25.4967 9.50069 25.5C10.8852 25.501 12.2487 25.161 13.4707 24.51L16.9657 28H8.00069ZM13.0007 30V29H17.9657L18.9707 30H13.0007ZM21.8107 29.31C21.527 29.5843 21.1478 29.7376 20.7532 29.7376C20.3586 29.7376 19.9794 29.5843 19.6957 29.31L14.3507 23.97C15.1768 23.3939 15.8945 22.6761 16.4707 21.85L21.8107 27.195C21.9516 27.3327 22.0635 27.4972 22.1399 27.6788C22.2163 27.8604 22.2557 28.0555 22.2557 28.2525C22.2557 28.4495 22.2163 28.6446 22.1399 28.8262C22.0635 29.0078 21.9516 29.1723 21.8107 29.31ZM17.0107 20.97C17.6974 19.6754 18.0374 18.2252 17.9976 16.7603C17.9578 15.2954 17.5395 13.8658 16.7835 12.6104C16.0274 11.3551 14.9594 10.3167 13.6832 9.59646C12.407 8.87618 10.9661 8.49844 9.50069 8.5C8.99758 8.50329 8.49571 8.55013 8.00069 8.64V2H22.0007V8C22.0007 8.06566 22.0136 8.13068 22.0387 8.19134C22.0639 8.252 22.1007 8.30713 22.1471 8.35355C22.1936 8.39998 22.2487 8.43681 22.3093 8.46194C22.37 8.48707 22.435 8.5 22.5007 8.5H28.0007V28H23.2307C23.1753 27.4284 22.9245 26.8933 22.5207 26.485L17.0107 20.97ZM30.0007 30H22.5357C22.8093 29.7185 23.0116 29.3756 23.1257 29H28.5007C28.6333 29 28.7605 28.9473 28.8542 28.8536C28.948 28.7598 29.0007 28.6326 29.0007 28.5V8C29.0014 7.87346 28.953 7.75157 28.8657 7.66L25.4907 4H30.0007V30Z" fill="black"/>
<path d="M10 3.5H13V4.5H10V3.5Z" fill="black"/>
<path d="M14.5 3.5H20.5V4.5H14.5V3.5Z" fill="black"/>
<path d="M10 6H20.5V7H10V6Z" fill="black"/>
<path d="M18 10H27V11H18V10Z" fill="black"/>
<path d="M18 12.5H27V13.5H18V12.5Z" fill="black"/>
<path d="M19 15H27V16H19V15Z" fill="black"/>
<path d="M19 17.5H21V18.5H19V17.5Z" fill="black"/>
<path d="M22 17.5H27V18.5H22V17.5Z" fill="black"/>
<path d="M16 17C16 15.7144 15.6188 14.4577 14.9045 13.3888C14.1903 12.3199 13.1752 11.4868 11.9874 10.9948C10.7997 10.5028 9.49278 10.3741 8.23191 10.6249C6.97103 10.8757 5.81285 11.4948 4.90381 12.4038C3.99477 13.3128 3.3757 14.471 3.1249 15.7319C2.87409 16.9928 3.00282 18.2997 3.49479 19.4874C3.98675 20.6752 4.81988 21.6903 5.88879 22.4045C6.95771 23.1188 8.21442 23.5 9.5 23.5C11.2233 23.498 12.8754 22.8125 14.094 21.594C15.3125 20.3754 15.998 18.7233 16 17ZM4 17C4 15.9122 4.32257 14.8488 4.92692 13.9444C5.53127 13.0399 6.39025 12.3349 7.39524 11.9187C8.40023 11.5024 9.5061 11.3935 10.573 11.6057C11.6399 11.8179 12.6199 12.3417 13.3891 13.1109C14.1583 13.8801 14.6821 14.8601 14.8943 15.927C15.1065 16.9939 14.9976 18.0998 14.5813 19.1048C14.165 20.1097 13.4601 20.9687 12.5556 21.5731C11.6512 22.1774 10.5878 22.5 9.5 22.5C8.04183 22.4983 6.64389 21.9183 5.61281 20.8872C4.58174 19.8561 4.00172 18.4582 4 17Z" fill="black"/>
</svg>
