<svg width="24" height="24" viewBox="0 0 24 24" fill="none" xmlns="http://www.w3.org/2000/svg">
<path fill-rule="evenodd" clip-rule="evenodd" d="M5.17201 12C5.17201 11.2206 5.30139 10.4732 5.53258 9.77233L1.4882 6.68402C0.699951 8.28433 0.255951 10.0877 0.255951 12C0.255951 13.9108 0.699576 15.7129 1.48651 17.3123L5.52864 14.218C5.2997 13.5203 5.17201 12.7757 5.17201 12Z" fill="#FBBC05"/>
<path fill-rule="evenodd" clip-rule="evenodd" d="M12.2728 4.90912C13.9661 4.90912 15.4956 5.50912 16.6972 6.49088L20.193 3C18.0628 1.14544 15.3317 0 12.2728 0C7.5238 0 3.4423 2.71575 1.48799 6.684L5.53218 9.77231C6.46405 6.94369 9.12037 4.90912 12.2728 4.90912Z" fill="#EA4335"/>
<path fill-rule="evenodd" clip-rule="evenodd" d="M12.2728 19.091C9.12055 19.091 6.46424 17.0564 5.53237 14.2278L1.48799 17.3155C3.4423 21.2843 7.5238 24.0001 12.2728 24.0001C15.2038 24.0001 18.0022 22.9593 20.1024 21.0093L16.2636 18.0415C15.1804 18.7238 13.8163 19.091 12.2728 19.091Z" fill="#34A853"/>
<path fill-rule="evenodd" clip-rule="evenodd" d="M23.7439 12.0002C23.7439 11.291 23.6345 10.5274 23.4707 9.81842H12.2732V14.4547H18.7187C18.3964 16.0355 17.5192 17.2507 16.2639 18.0416L20.1028 21.0094C22.3089 18.9619 23.7439 15.9116 23.7439 12.0002Z" fill="#4285F4"/>
</svg>
