<svg width="14" height="14" viewBox="0 0 14 14" fill="none" xmlns="http://www.w3.org/2000/svg">
<path fill-rule="evenodd" clip-rule="evenodd" d="M7.00061 0.599991C5.26245 0.599991 5.04432 0.607591 4.36165 0.638658C3.68031 0.669858 3.21523 0.777726 2.8083 0.935994C2.38736 1.09946 2.03029 1.31813 1.67455 1.674C1.31855 2.02974 1.09988 2.38681 0.935876 2.80761C0.777208 3.21468 0.669207 3.67989 0.63854 4.36096C0.608006 5.04364 0.600006 5.26191 0.600006 7.00006C0.600006 8.73821 0.60774 8.95568 0.638673 9.63835C0.670007 10.3197 0.777875 10.7848 0.93601 11.1917C1.09961 11.6126 1.31828 11.9697 1.67415 12.3254C2.02975 12.6814 2.38682 12.9007 2.8075 13.0641C3.2147 13.2224 3.6799 13.3303 4.36111 13.3615C5.04379 13.3925 5.26179 13.4001 6.99981 13.4001C8.73809 13.4001 8.95556 13.3925 9.63823 13.3615C10.3196 13.3303 10.7852 13.2224 11.1924 13.0641C11.6132 12.9007 11.9697 12.6814 12.3253 12.3254C12.6813 11.9697 12.9 11.6126 13.064 11.1918C13.2213 10.7848 13.3293 10.3196 13.3613 9.63848C13.392 8.95581 13.4 8.73821 13.4 7.00006C13.4 5.26191 13.392 5.04377 13.3613 4.3611C13.3293 3.67976 13.2213 3.21468 13.064 2.80775C12.9 2.38681 12.6813 2.02974 12.3253 1.674C11.9693 1.318 11.6133 1.09933 11.192 0.935994C10.784 0.777726 10.3186 0.669858 9.6373 0.638658C8.95463 0.607591 8.73729 0.599991 6.99861 0.599991H7.00061ZM6.42644 1.75332C6.59684 1.75305 6.78698 1.75332 7.00058 1.75332C8.7094 1.75332 8.91193 1.75945 9.58674 1.79012C10.2107 1.81865 10.5494 1.92292 10.775 2.01052C11.0737 2.12652 11.2866 2.26519 11.5105 2.48919C11.7345 2.71319 11.8732 2.92653 11.9894 3.2252C12.077 3.45054 12.1814 3.78921 12.2098 4.41321C12.2405 5.08789 12.2472 5.29056 12.2472 6.99857C12.2472 8.70659 12.2405 8.90926 12.2098 9.58393C12.1813 10.2079 12.077 10.5466 11.9894 10.7719C11.8734 11.0706 11.7345 11.2833 11.5105 11.5072C11.2865 11.7312 11.0738 11.8698 10.775 11.9858C10.5497 12.0738 10.2107 12.1778 9.58674 12.2064C8.91207 12.237 8.7094 12.2437 7.00058 12.2437C5.29163 12.2437 5.08909 12.237 4.41442 12.2064C3.79041 12.1776 3.45174 12.0733 3.22601 11.9857C2.92734 11.8697 2.714 11.731 2.49 11.507C2.266 11.283 2.12733 11.0702 2.01106 10.7714C1.92346 10.5461 1.81906 10.2074 1.79066 9.5834C1.75999 8.90873 1.75386 8.70606 1.75386 6.99697C1.75386 5.28789 1.75999 5.08629 1.79066 4.41161C1.81919 3.78761 1.92346 3.44894 2.01106 3.22333C2.12706 2.92466 2.266 2.71133 2.49 2.48733C2.714 2.26332 2.92734 2.12466 3.22601 2.00839C3.45161 1.92039 3.79041 1.81639 4.41442 1.78772C5.00482 1.76105 5.23363 1.75305 6.42644 1.75172V1.75332ZM10.4169 2.816C9.99288 2.816 9.64888 3.1596 9.64888 3.58374C9.64888 4.00774 9.99288 4.35175 10.4169 4.35175C10.8409 4.35175 11.1849 4.00774 11.1849 3.58374C11.1849 3.15974 10.8409 2.816 10.4169 2.816ZM7.00062 3.71334C5.18553 3.71334 3.71392 5.18495 3.71392 7.00004C3.71392 8.81513 5.18553 10.2861 7.00062 10.2861C8.8157 10.2861 10.2868 8.81513 10.2868 7.00004C10.2868 5.18495 8.8157 3.71334 7.00062 3.71334ZM7.00059 4.86668C8.17874 4.86668 9.13395 5.82176 9.13395 7.00004C9.13395 8.17819 8.17874 9.1334 7.00059 9.1334C5.82231 9.1334 4.86724 8.17819 4.86724 7.00004C4.86724 5.82176 5.82231 4.86668 7.00059 4.86668Z" fill="white"/>
</svg>
