<svg width="12" height="10" viewBox="0 0 12 10" fill="none" xmlns="http://www.w3.org/2000/svg">
<path fill-rule="evenodd" clip-rule="evenodd" d="M5.6406 2.75376L5.66578 3.16899L5.2461 3.11815C3.71843 2.92324 2.38383 2.26227 1.25067 1.15217L0.696681 0.601361L0.553988 1.00811C0.251813 1.91483 0.444869 2.8724 1.0744 3.51642C1.41015 3.87233 1.33461 3.92318 0.755438 3.71133C0.553988 3.64353 0.377719 3.59269 0.360931 3.61811C0.302175 3.67743 0.503625 4.44857 0.663106 4.75363C0.881344 5.17733 1.32621 5.59256 1.81305 5.83831L2.22434 6.03321L1.73751 6.04168C1.26746 6.04168 1.25067 6.05016 1.30103 6.22811C1.46891 6.77892 2.13201 7.36363 2.87066 7.61785L3.39108 7.79581L2.93781 8.06697C2.26631 8.45678 1.4773 8.6771 0.688288 8.69405C0.310569 8.70253 0 8.73642 0 8.76184C0 8.84658 1.02404 9.32113 1.61999 9.50756C3.40786 10.0584 5.53148 9.8211 7.1263 8.88048C8.25945 8.21103 9.39261 6.88061 9.92142 5.59256C10.2068 4.90616 10.4922 3.65201 10.4922 3.05035C10.4922 2.66055 10.5174 2.6097 10.9874 2.14363C11.2644 1.87246 11.5246 1.57587 11.575 1.49113C11.6589 1.33013 11.6505 1.33013 11.2224 1.47419C10.509 1.72841 10.4083 1.69451 10.7608 1.31318C11.021 1.04201 11.3316 0.550517 11.3316 0.406458C11.3316 0.381036 11.2057 0.423406 11.063 0.499673C10.9119 0.584413 10.5761 0.711523 10.3243 0.787789L9.87105 0.931848L9.45976 0.652205C9.23313 0.499673 8.91417 0.330192 8.74629 0.279348C8.31821 0.160712 7.6635 0.17766 7.27738 0.313244C6.22816 0.694575 5.56506 1.67756 5.6406 2.75376Z" fill="white"/>
</svg>
