<svg width="14" height="14" viewBox="0 0 14 14" fill="none" xmlns="http://www.w3.org/2000/svg">
<path fill-rule="evenodd" clip-rule="evenodd" d="M13.4 6.99112C13.4 7.42394 13.3559 7.85616 13.2694 8.27747C13.185 8.68878 13.06 9.09258 12.8962 9.4786C12.7363 9.85779 12.5378 10.2232 12.3059 10.564C12.0775 10.9026 11.8143 11.2203 11.5252 11.5098C11.2355 11.7982 10.9168 12.0606 10.5783 12.29C10.2364 12.5203 9.8705 12.7184 9.49109 12.8792C9.10452 13.0421 8.69978 13.1669 8.28883 13.2511C7.86696 13.3379 7.43316 13.3822 6.99972 13.3822C6.56595 13.3822 6.13218 13.3379 5.71091 13.2511C5.29933 13.1669 4.89462 13.0421 4.50835 12.8792C4.12896 12.7184 3.76267 12.5203 3.42079 12.29C3.08234 12.0606 2.76357 11.7982 2.47449 11.5098C2.18511 11.2203 1.92196 10.9026 1.6932 10.564C1.46256 10.2232 1.26379 9.85776 1.10317 9.4786C0.939387 9.09258 0.814086 8.68875 0.729391 8.27747C0.643769 7.85616 0.600006 7.42394 0.600006 6.99112C0.600006 6.55797 0.643744 6.12483 0.729416 5.70444C0.814111 5.29314 0.939412 4.88871 1.10319 4.50332C1.26381 4.12385 1.46259 3.75812 1.69322 3.41733C1.92198 3.07844 2.18514 2.76136 2.47452 2.47145C2.7636 2.18308 3.08236 1.92129 3.42081 1.69223C3.7627 1.46098 4.12898 1.26284 4.50837 1.1018C4.89465 0.938557 5.29933 0.813436 5.71093 0.729814C6.1322 0.64369 6.56597 0.599991 6.99974 0.599991C7.43319 0.599991 7.86696 0.64369 8.28885 0.729814C8.6998 0.813461 9.10452 0.938582 9.49112 1.1018C9.8705 1.26281 10.2365 1.46098 10.5783 1.69223C10.9168 1.92129 11.2356 2.18308 11.5253 2.47145C11.8144 2.76136 12.0775 3.07844 12.3059 3.41733C12.5378 3.75812 12.7363 4.12388 12.8962 4.50332C13.06 4.88871 13.185 5.29314 13.2694 5.70444C13.3559 6.12483 13.4 6.55797 13.4 6.99112ZM4.6677 2.05453C3.14354 2.77323 2.00598 4.17565 1.65127 5.8658C1.79536 5.86705 4.07298 5.89577 6.69717 5.19952C5.75119 3.52123 4.74052 2.15161 4.6677 2.05453ZM7.15 6.03995C4.3358 6.88125 1.63534 6.82072 1.53847 6.81699C1.53689 6.87565 1.53408 6.93243 1.53408 6.99111C1.53408 8.3932 2.06379 9.67142 2.93447 10.6379C2.93259 10.6351 4.42831 7.98535 7.37783 7.03294C7.44907 7.00922 7.52159 6.98799 7.59346 6.9674C7.45629 6.65722 7.30656 6.3464 7.15 6.03995ZM10.6093 2.89493C9.64701 2.04765 8.38353 1.53371 6.9997 1.53371C6.55561 1.53371 6.12464 1.58739 5.71182 1.68662C5.79368 1.79649 6.82031 3.15645 7.75504 4.87029C9.81735 4.09826 10.5958 2.91489 10.6093 2.89493ZM7.96602 7.87176C7.95385 7.87579 7.94168 7.87927 7.92978 7.88362C4.70498 9.00621 3.65187 11.2686 3.64048 11.2933C4.56836 12.0138 5.73217 12.4485 6.99974 12.4485C7.75663 12.4485 8.4776 12.2946 9.13357 12.016C9.05263 11.5392 8.73512 9.86774 7.96602 7.87176ZM10.0539 11.5173C11.2812 10.6904 12.1528 9.37719 12.3959 7.85613C12.2834 7.81993 10.7543 7.33654 8.99009 7.61897C9.707 9.58626 9.99829 11.1884 10.0539 11.5173ZM8.17573 5.68355C8.30259 5.94382 8.42543 6.20872 8.53886 6.47495C8.57919 6.57045 8.61857 6.66408 8.657 6.75768C10.5346 6.52175 12.3844 6.9187 12.4635 6.93491C12.451 5.6411 11.9875 4.45368 11.2206 3.52406C11.2103 3.53869 10.3337 4.8035 8.17573 5.68355Z" fill="white"/>
</svg>
