<svg width="25" height="24" viewBox="0 0 25 24" fill="none" xmlns="http://www.w3.org/2000/svg">
<path d="M3.03177 0C1.19858 0 0 1.20377 0 2.78595C0 4.33319 1.16287 5.57129 2.96143 5.57129H2.99622C4.86526 5.57129 6.02844 4.33319 6.02844 2.78595C5.9935 1.20377 4.86526 0 3.03177 0V0Z" fill="white"/>
<path d="M0.316788 7.77271H5.67598V23.8961H0.316788V7.77271Z" fill="white"/>
<path d="M18.8303 7.39423C15.9392 7.39423 14.0005 10.1109 14.0005 10.1109V7.77264H8.6412V23.896H14.0002V14.8921C14.0002 14.4101 14.0352 13.9288 14.1768 13.5841C14.5642 12.6216 15.4459 11.6244 16.9264 11.6244C18.8657 11.6244 19.6413 13.103 19.6413 15.2705V23.896H25V14.6512C25 9.69876 22.356 7.39423 18.8303 7.39423V7.39423Z" fill="white"/>
</svg>
