<svg width="32" height="33" viewBox="0 0 32 33" fill="none" xmlns="http://www.w3.org/2000/svg">
<path d="M19.3103 6.06913C19.0056 6.06913 18.7585 5.82212 18.7585 5.51741V3.31051C18.7585 3.0058 19.0056 2.75879 19.3103 2.75879C19.615 2.75879 19.862 3.0058 19.862 3.31051V5.51741C19.862 5.82212 19.615 6.06913 19.3103 6.06913Z" fill="#95A5A5"/>
<path d="M19.3103 0H23.7241C24.0288 0 24.2758 0.247015 24.2758 0.551724V2.75862C24.2758 3.06333 24.0288 3.31034 23.7241 3.31034H18.7585V0.551724C18.7585 0.247015 19.0056 0 19.3103 0Z" fill="#F0C419"/>
<path d="M21.9465 32.0003H17.226C16.8805 32.0244 16.5799 31.7661 16.5518 31.421V20.4141H22.6207V31.421C22.5926 31.7661 22.292 32.0244 21.9465 32.0003Z" fill="#A56A43"/>
<path d="M19.3103 30.3451C19.0056 30.3451 18.7585 30.0981 18.7585 29.7934V20.9658C18.7585 20.6611 19.0056 20.4141 19.3103 20.4141C19.615 20.4141 19.862 20.6611 19.862 20.9658V29.7934C19.862 30.0981 19.615 30.3451 19.3103 30.3451Z" fill="#805333"/>
<path d="M16.0002 20.9659H31.4484C31.7531 20.9659 32.0002 20.7188 32.0002 20.4141V11.5865C32.0002 8.23475 29.283 5.51758 25.9312 5.51758H10.4829L16.0002 20.9659Z" fill="#4887CC"/>
<path d="M29.2414 15.4482H24.8276C24.5229 15.4482 24.2759 15.6953 24.2759 16V18.2069C24.2759 18.5116 24.5229 18.7586 24.8276 18.7586H29.2414C29.5461 18.7586 29.7931 18.5116 29.7931 18.2069V16C29.7931 15.6953 29.5461 15.4482 29.2414 15.4482Z" fill="#ECF0F1"/>
<path d="M4.43872 11.0348C4.72401 7.90968 7.34473 5.51742 10.4829 5.51758C13.8347 5.51758 16.5518 8.23475 16.5518 11.5865V20.4141C16.5518 20.7188 16.3048 20.9659 16.0001 20.9659H13.2415L4.43872 11.0348Z" fill="#2C75B7"/>
<path d="M14.1628 11.5307C13.9587 11.2208 13.6125 11.0342 13.2414 11.0342H1.10345C0.494031 11.0342 0 11.5282 0 12.1376V19.8618C0.0021665 20.1674 0.129843 20.4586 0.353103 20.6673C0.554644 20.8609 0.824 20.9678 1.10345 20.9652H13.2414C13.5208 20.9678 13.7902 20.8609 13.9917 20.6673C14.215 20.4586 14.3427 20.1674 14.3448 19.8618V12.1376C14.3448 11.9219 14.2815 11.7109 14.1628 11.5307Z" fill="#F3D55B"/>
<path d="M5.66621 16.1713L0.353103 20.6678C0.129843 20.4591 0.0021665 20.1679 0 19.8623V12.1381C5.39366e-05 11.9224 0.0633537 11.7114 0.182069 11.5312L5.66621 16.1713Z" fill="#F0C419"/>
<path d="M13.9917 20.6675C13.7901 20.861 13.5208 20.968 13.2413 20.9654H1.10337C0.823924 20.968 0.554567 20.861 0.353027 20.6675L5.66613 16.1709L6.46061 16.844C6.87167 17.191 7.473 17.191 7.88406 16.844L8.67854 16.1709L13.9917 20.6675Z" fill="#F29C1F"/>
<path d="M14.3449 12.1381V19.8623C14.3428 20.1679 14.2151 20.4591 13.9918 20.6678L8.67871 16.1713L14.1628 11.5312C14.2816 11.7114 14.3449 11.9224 14.3449 12.1381Z" fill="#F0C419"/>
<path d="M8.82765 13.7929H5.5173C5.21259 13.7929 4.96558 13.5459 4.96558 13.2412C4.96558 12.9365 5.21259 12.6895 5.5173 12.6895H8.82765C9.13235 12.6895 9.37937 12.9365 9.37937 13.2412C9.37937 13.5459 9.13235 13.7929 8.82765 13.7929Z" fill="#ECF0F1"/>
</svg>
