<svg width="54" height="54" viewBox="0 0 54 54" fill="none" xmlns="http://www.w3.org/2000/svg">
<path d="M27 0.333313C12.28 0.333313 0.333374 12.28 0.333374 27C0.333374 41.72 12.28 53.6666 27 53.6666C41.72 53.6666 53.6667 41.72 53.6667 27C53.6667 12.28 41.72 0.333313 27 0.333313ZM27 48.3333C15.24 48.3333 5.66671 38.76 5.66671 27C5.66671 15.24 15.24 5.66665 27 5.66665C38.76 5.66665 48.3334 15.24 48.3334 27C48.3334 38.76 38.76 48.3333 27 48.3333ZM39.24 15.2133L21.6667 32.7866L14.76 25.9066L11 29.6666L21.6667 40.3333L43 19L39.24 15.2133Z" fill="#45B618"/>
</svg>
